<?xml version="1.0" encoding="UTF-8"?>
<svg id="Layer_1" data-name="Layer 1" xmlns="http://www.w3.org/2000/svg" viewBox="0 0 716 716">
  <defs>
    <style>
      .cls-1 {
        fill: #1e1e1e;
      }

      .cls-1, .cls-2 {
        stroke-width: 0px;
      }

      .cls-2 {
        fill: none;
      }
    </style>
  </defs>
  <path class="cls-2" d="M483.51,267.74c-56.45,0-81.64,31.06-95.76,52.79h0v-45.29h-106.28c1.42,29.98,0,319.6,0,319.6h106.28v-178.49c0-9.58.73-19.07,3.52-25.9,7.69-19.12,25.14-38.86,54.51-38.86,38.46,0,53.81,29.32,53.81,72.26v170.99h106.26v-183.27c0-98.16-52.41-143.83-122.34-143.83Z"/>
  <path class="cls-2" d="M170.28,121.17c-36.36,0-60.13,23.85-60.13,55.21s23.1,55.24,58.73,55.24h.7c37.06,0,60.1-24.55,60.1-55.24-.7-31.36-23.04-55.21-59.41-55.21Z"/>
  <rect class="cls-2" x="116.47" y="275.24" width="106.23" height="319.6"/>
  <path class="cls-2" d="M0,557v159h159C71.19,716,0,644.81,0,557Z"/>
  <path class="cls-2" d="M557,0C644.81,0,716,71.19,716,159V0h-159Z"/>
  <path class="cls-2" d="M159,0H0v159C0,71.19,71.19,0,159,0Z"/>
  <path class="cls-2" d="M557,716h159v-159c0,87.81-71.19,159-159,159Z"/>
  <path class="cls-1" d="M557,0H159C71.19,0,0,71.19,0,159v398C0,644.81,71.19,716,159,716h398c87.81,0,159-71.19,159-159V159C716,71.19,644.81,0,557,0ZM222.7,594.83h-106.23v-319.6h106.23v319.6ZM169.59,231.62h-.7c-35.63,0-58.73-24.55-58.73-55.24s23.77-55.21,60.13-55.21,58.71,23.85,59.41,55.21c0,30.69-23.04,55.24-60.1,55.24ZM605.85,594.83h-106.26v-170.99c0-42.95-15.35-72.26-53.81-72.26-29.37,0-46.82,19.74-54.51,38.86-2.79,6.83-3.52,16.32-3.52,25.9v178.49h-106.28s1.42-289.61,0-319.6h106.28v45.29h0c14.12-21.73,39.32-52.79,95.76-52.79,69.93,0,122.34,45.67,122.34,143.83v183.27Z"/>
</svg>